{
    "asset" : {
        "generator" : "Khronos glTF Blender I/O v1.6.16",
        "version" : "2.0"
    },
    "scene" : 0,
    "scenes" : [
        {
            "name" : "Scene",
            "nodes" : [
                0,
                1,
                2
            ]
        }
    ],
    "nodes" : [
        {
            "name" : "Light",
            "rotation" : [
                0.16907575726509094,
                0.7558803558349609,
                -0.27217137813568115,
                0.570947527885437
            ],
            "translation" : [
                4.076245307922363,
                5.903861999511719,
                -1.0054539442062378
            ]
        },
        {
            "mesh" : 0,
            "name" : "8.0.201.0",
            "rotation" : [
                0.7071068286895752,
                0,
                0,
                0.7071067094802856
            ]
        },
        {
            "name" : "touster",
            "rotation" : [
                0.7071068286895752,
                0,
                0,
                0.7071067094802856
            ]
        }
    ],
    "materials" : [
        {
            "doubleSided" : true,
            "name" : "material4",
            "pbrMetallicRoughness" : {
                "baseColorFactor" : [
                    0.20800000429153442,
                    0.20800000429153442,
                    0.20800000429153442,
                    1
                ],
                "metallicFactor" : 0,
                "roughnessFactor" : 0.7642977237701416
            }
        },
        {
            "doubleSided" : true,
            "name" : "toustovac_spodok",
            "pbrMetallicRoughness" : {
                "baseColorFactor" : [
                    0.0689999982714653,
                    0.0689999982714653,
                    0.0689999982714653,
                    1
                ],
                "metallicFactor" : 0,
                "roughnessFactor" : 0.7219113111495972
            }
        },
        {
            "doubleSided" : true,
            "name" : "toustovac_spodok1",
            "pbrMetallicRoughness" : {
                "baseColorFactor" : [
                    0.0689999982714653,
                    0.0689999982714653,
                    0.0689999982714653,
                    1
                ],
                "metallicFactor" : 0,
                "roughnessFactor" : 0.7219113111495972
            }
        },
        {
            "doubleSided" : true,
            "name" : "material5",
            "pbrMetallicRoughness" : {
                "baseColorFactor" : [
                    0.20800000429153442,
                    0.20800000429153442,
                    0.20800000429153442,
                    1
                ],
                "metallicFactor" : 0,
                "roughnessFactor" : 0.7642977237701416
            }
        },
        {
            "doubleSided" : true,
            "name" : "toustovac_spodok2",
            "pbrMetallicRoughness" : {
                "baseColorFactor" : [
                    0.38600000739097595,
                    0,
                    0.019999999552965164,
                    1
                ],
                "metallicFactor" : 0,
                "roughnessFactor" : 0.8422378897666931
            }
        },
        {
            "doubleSided" : true,
            "name" : "material151",
            "pbrMetallicRoughness" : {
                "baseColorTexture" : {
                    "index" : 0
                },
                "metallicFactor" : 0,
                "roughnessFactor" : 0.7642977237701416
            }
        },
        {
            "doubleSided" : true,
            "name" : "material152",
            "pbrMetallicRoughness" : {
                "baseColorTexture" : {
                    "index" : 1
                },
                "metallicFactor" : 0,
                "roughnessFactor" : 0.7642977237701416
            }
        },
        {
            "doubleSided" : true,
            "name" : "phong2",
            "pbrMetallicRoughness" : {
                "baseColorFactor" : [
                    0,
                    0,
                    0,
                    1
                ],
                "metallicFactor" : 0,
                "roughnessFactor" : 0.7642977237701416
            }
        },
        {
            "doubleSided" : true,
            "name" : "material2",
            "pbrMetallicRoughness" : {
                "metallicFactor" : 0,
                "roughnessFactor" : 0.7642977237701416
            }
        },
        {
            "doubleSided" : true,
            "name" : "material3",
            "pbrMetallicRoughness" : {
                "metallicFactor" : 0,
                "roughnessFactor" : 0.7642977237701416
            }
        },
        {
            "doubleSided" : true,
            "name" : "phong3",
            "pbrMetallicRoughness" : {
                "baseColorFactor" : [
                    0,
                    0,
                    0,
                    1
                ],
                "metallicFactor" : 0,
                "roughnessFactor" : 0.7642977237701416
            }
        }
    ],
    "meshes" : [
        {
            "name" : "8.0.201.0",
            "primitives" : [
                {
                    "attributes" : {
                        "POSITION" : 0,
                        "NORMAL" : 1,
                        "TEXCOORD_0" : 2
                    },
                    "indices" : 3,
                    "material" : 0
                },
                {
                    "attributes" : {
                        "POSITION" : 4,
                        "NORMAL" : 5,
                        "TEXCOORD_0" : 6
                    },
                    "indices" : 7,
                    "material" : 1
                },
                {
                    "attributes" : {
                        "POSITION" : 8,
                        "NORMAL" : 9,
                        "TEXCOORD_0" : 10
                    },
                    "indices" : 11,
                    "material" : 2
                },
                {
                    "attributes" : {
                        "POSITION" : 12,
                        "NORMAL" : 13,
                        "TEXCOORD_0" : 14
                    },
                    "indices" : 15,
                    "material" : 3
                },
                {
                    "attributes" : {
                        "POSITION" : 16,
                        "NORMAL" : 17,
                        "TEXCOORD_0" : 18
                    },
                    "indices" : 19,
                    "material" : 4
                },
                {
                    "attributes" : {
                        "POSITION" : 20,
                        "NORMAL" : 21,
                        "TEXCOORD_0" : 22
                    },
                    "indices" : 23,
                    "material" : 5
                },
                {
                    "attributes" : {
                        "POSITION" : 24,
                        "NORMAL" : 25,
                        "TEXCOORD_0" : 26
                    },
                    "indices" : 27,
                    "material" : 6
                },
                {
                    "attributes" : {
                        "POSITION" : 28,
                        "NORMAL" : 29,
                        "TEXCOORD_0" : 30
                    },
                    "indices" : 31,
                    "material" : 7
                },
                {
                    "attributes" : {
                        "POSITION" : 32,
                        "NORMAL" : 33,
                        "TEXCOORD_0" : 34
                    },
                    "indices" : 35,
                    "material" : 8
                },
                {
                    "attributes" : {
                        "POSITION" : 36,
                        "NORMAL" : 37,
                        "TEXCOORD_0" : 38
                    },
                    "indices" : 39,
                    "material" : 9
                },
                {
                    "attributes" : {
                        "POSITION" : 40,
                        "NORMAL" : 41,
                        "TEXCOORD_0" : 42
                    },
                    "indices" : 43,
                    "material" : 10
                }
            ]
        }
    ],
    "textures" : [
        {
            "sampler" : 0,
            "source" : 0
        },
        {
            "sampler" : 0,
            "source" : 0
        }
    ],
    "images" : [
        {
            "bufferView" : 24,
            "mimeType" : "image/jpeg",
            "name" : "toast"
        }
    ],
    "accessors" : [
        {
            "bufferView" : 0,
            "componentType" : 5126,
            "count" : 272,
            "max" : [
                -0.30121898651123047,
                0.6404550075531006,
                -0.5268340110778809
            ],
            "min" : [
                -4.732855796813965,
                -2.360685110092163,
                -2.7996819019317627
            ],
            "type" : "VEC3"
        },
        {
            "bufferView" : 1,
            "componentType" : 5126,
            "count" : 272,
            "type" : "VEC3"
        },
        {
            "bufferView" : 2,
            "componentType" : 5126,
            "count" : 272,
            "type" : "VEC2"
        },
        {
            "bufferView" : 3,
            "componentType" : 5123,
            "count" : 1416,
            "type" : "SCALAR"
        },
        {
            "bufferView" : 4,
            "componentType" : 5126,
            "count" : 728,
            "max" : [
                0.09674599766731262,
                0.08369100093841553,
                -1.9046870470046997
            ],
            "min" : [
                -0.9585649967193604,
                -0.7275059819221497,
                -2.0968000888824463
            ],
            "type" : "VEC3"
        },
        {
            "bufferView" : 5,
            "componentType" : 5126,
            "count" : 728,
            "type" : "VEC3"
        },
        {
            "bufferView" : 6,
            "componentType" : 5126,
            "count" : 728,
            "type" : "VEC2"
        },
        {
            "bufferView" : 7,
            "componentType" : 5123,
            "count" : 3576,
            "type" : "SCALAR"
        },
        {
            "bufferView" : 8,
            "componentType" : 5126,
            "count" : 2156,
            "max" : [
                -0.22942599654197693,
                0.6750649809837341,
                -0.010944000445306301
            ],
            "min" : [
                -4.815034866333008,
                -2.4045050144195557,
                -0.9906690120697021
            ],
            "type" : "VEC3"
        },
        {
            "bufferView" : 9,
            "componentType" : 5126,
            "count" : 2156,
            "type" : "VEC3"
        },
        {
            "bufferView" : 10,
            "componentType" : 5126,
            "count" : 2156,
            "type" : "VEC2"
        },
        {
            "bufferView" : 11,
            "componentType" : 5123,
            "count" : 10452,
            "type" : "SCALAR"
        },
        {
            "bufferView" : 12,
            "componentType" : 5126,
            "count" : 507,
            "max" : [
                -0.29062700271606445,
                0.46422699093818665,
                -0.5268340110778809
            ],
            "min" : [
                -4.7434468269348145,
                -2.1845650672912598,
                -2.839982032775879
            ],
            "type" : "VEC3"
        },
        {
            "bufferView" : 13,
            "componentType" : 5126,
            "count" : 507,
            "type" : "VEC3"
        },
        {
            "bufferView" : 14,
            "componentType" : 5126,
            "count" : 507,
            "type" : "VEC2"
        },
        {
            "bufferView" : 15,
            "componentType" : 5123,
            "count" : 2322,
            "type" : "SCALAR"
        },
        {
            "bufferView" : 16,
            "componentType" : 5126,
            "count" : 289,
            "max" : [
                -0.3077700138092041,
                -0.832207977771759,
                -0.7077190279960632
            ],
            "min" : [
                -0.35715198516845703,
                -0.9848060011863708,
                -0.8639469742774963
            ],
            "type" : "VEC3"
        },
        {
            "bufferView" : 17,
            "componentType" : 5126,
            "count" : 289,
            "type" : "VEC3"
        },
        {
            "bufferView" : 18,
            "componentType" : 5126,
            "count" : 289,
            "type" : "VEC2"
        },
        {
            "bufferView" : 19,
            "componentType" : 5123,
            "count" : 1656,
            "type" : "SCALAR"
        },
        {
            "bufferView" : 20,
            "componentType" : 5126,
            "count" : 1246,
            "max" : [
                -1.5050560235977173,
                -0.18981699645519257,
                -1.0459810495376587
            ],
            "min" : [
                -3.880979061126709,
                -0.6733300089836121,
                -3.6216280460357666
            ],
            "type" : "VEC3"
        },
        {
            "bufferView" : 21,
            "componentType" : 5126,
            "count" : 1246,
            "type" : "VEC3"
        },
        {
            "bufferView" : 22,
            "componentType" : 5126,
            "count" : 1246,
            "type" : "VEC2"
        },
        {
            "bufferView" : 23,
            "componentType" : 5123,
            "count" : 7464,
            "type" : "SCALAR"
        },
        {
            "bufferView" : 25,
            "componentType" : 5126,
            "count" : 2492,
            "max" : [
                -4.991543769836426,
                1.2197710275650024,
                -0.013629999943077564
            ],
            "min" : [
                -8.618910789489746,
                -1.977260947227478,
                -0.5020819902420044
            ],
            "type" : "VEC3"
        },
        {
            "bufferView" : 26,
            "componentType" : 5126,
            "count" : 2492,
            "type" : "VEC3"
        },
        {
            "bufferView" : 27,
            "componentType" : 5126,
            "count" : 2492,
            "type" : "VEC2"
        },
        {
            "bufferView" : 28,
            "componentType" : 5123,
            "count" : 14928,
            "type" : "SCALAR"
        },
        {
            "bufferView" : 29,
            "componentType" : 5126,
            "count" : 554,
            "max" : [
                1.677024006843567,
                -1.2585200071334839,
                -0.01988700032234192
            ],
            "min" : [
                1.1678489446640015,
                -1.7797709703445435,
                -0.3375979959964752
            ],
            "type" : "VEC3"
        },
        {
            "bufferView" : 30,
            "componentType" : 5126,
            "count" : 554,
            "type" : "VEC3"
        },
        {
            "bufferView" : 31,
            "componentType" : 5126,
            "count" : 554,
            "type" : "VEC2"
        },
        {
            "bufferView" : 32,
            "componentType" : 5123,
            "count" : 3312,
            "type" : "SCALAR"
        },
        {
            "bufferView" : 33,
            "componentType" : 5126,
            "count" : 122,
            "max" : [
                1.6689209938049316,
                -1.3492109775543213,
                -0.18691900372505188
            ],
            "min" : [
                1.513023018836975,
                -1.4333829879760742,
                -0.2651729881763458
            ],
            "type" : "VEC3"
        },
        {
            "bufferView" : 34,
            "componentType" : 5126,
            "count" : 122,
            "type" : "VEC3"
        },
        {
            "bufferView" : 35,
            "componentType" : 5126,
            "count" : 122,
            "type" : "VEC2"
        },
        {
            "bufferView" : 36,
            "componentType" : 5123,
            "count" : 630,
            "type" : "SCALAR"
        },
        {
            "bufferView" : 37,
            "componentType" : 5126,
            "count" : 214,
            "max" : [
                1.7129520177841187,
                -1.461827039718628,
                -0.097461998462677
            ],
            "min" : [
                1.557054042816162,
                -1.6329230070114136,
                -0.27295801043510437
            ],
            "type" : "VEC3"
        },
        {
            "bufferView" : 38,
            "componentType" : 5126,
            "count" : 214,
            "type" : "VEC3"
        },
        {
            "bufferView" : 39,
            "componentType" : 5126,
            "count" : 214,
            "type" : "VEC2"
        },
        {
            "bufferView" : 40,
            "componentType" : 5123,
            "count" : 1080,
            "type" : "SCALAR"
        },
        {
            "bufferView" : 41,
            "componentType" : 5126,
            "count" : 975,
            "max" : [
                1.2140209674835205,
                -1.5115309953689575,
                -0.0275650005787611
            ],
            "min" : [
                -3.749833106994629,
                -2.5755538940429688,
                -0.3908570110797882
            ],
            "type" : "VEC3"
        },
        {
            "bufferView" : 42,
            "componentType" : 5126,
            "count" : 975,
            "type" : "VEC3"
        },
        {
            "bufferView" : 43,
            "componentType" : 5126,
            "count" : 975,
            "type" : "VEC2"
        },
        {
            "bufferView" : 44,
            "componentType" : 5123,
            "count" : 5550,
            "type" : "SCALAR"
        }
    ],
    "bufferViews" : [
        {
            "buffer" : 0,
            "byteLength" : 3264,
            "byteOffset" : 0
        },
        {
            "buffer" : 0,
            "byteLength" : 3264,
            "byteOffset" : 3264
        },
        {
            "buffer" : 0,
            "byteLength" : 2176,
            "byteOffset" : 6528
        },
        {
            "buffer" : 0,
            "byteLength" : 2832,
            "byteOffset" : 8704
        },
        {
            "buffer" : 0,
            "byteLength" : 8736,
            "byteOffset" : 11536
        },
        {
            "buffer" : 0,
            "byteLength" : 8736,
            "byteOffset" : 20272
        },
        {
            "buffer" : 0,
            "byteLength" : 5824,
            "byteOffset" : 29008
        },
        {
            "buffer" : 0,
            "byteLength" : 7152,
            "byteOffset" : 34832
        },
        {
            "buffer" : 0,
            "byteLength" : 25872,
            "byteOffset" : 41984
        },
        {
            "buffer" : 0,
            "byteLength" : 25872,
            "byteOffset" : 67856
        },
        {
            "buffer" : 0,
            "byteLength" : 17248,
            "byteOffset" : 93728
        },
        {
            "buffer" : 0,
            "byteLength" : 20904,
            "byteOffset" : 110976
        },
        {
            "buffer" : 0,
            "byteLength" : 6084,
            "byteOffset" : 131880
        },
        {
            "buffer" : 0,
            "byteLength" : 6084,
            "byteOffset" : 137964
        },
        {
            "buffer" : 0,
            "byteLength" : 4056,
            "byteOffset" : 144048
        },
        {
            "buffer" : 0,
            "byteLength" : 4644,
            "byteOffset" : 148104
        },
        {
            "buffer" : 0,
            "byteLength" : 3468,
            "byteOffset" : 152748
        },
        {
            "buffer" : 0,
            "byteLength" : 3468,
            "byteOffset" : 156216
        },
        {
            "buffer" : 0,
            "byteLength" : 2312,
            "byteOffset" : 159684
        },
        {
            "buffer" : 0,
            "byteLength" : 3312,
            "byteOffset" : 161996
        },
        {
            "buffer" : 0,
            "byteLength" : 14952,
            "byteOffset" : 165308
        },
        {
            "buffer" : 0,
            "byteLength" : 14952,
            "byteOffset" : 180260
        },
        {
            "buffer" : 0,
            "byteLength" : 9968,
            "byteOffset" : 195212
        },
        {
            "buffer" : 0,
            "byteLength" : 14928,
            "byteOffset" : 205180
        },
        {
            "buffer" : 0,
            "byteLength" : 24159,
            "byteOffset" : 220108
        },
        {
            "buffer" : 0,
            "byteLength" : 29904,
            "byteOffset" : 244268
        },
        {
            "buffer" : 0,
            "byteLength" : 29904,
            "byteOffset" : 274172
        },
        {
            "buffer" : 0,
            "byteLength" : 19936,
            "byteOffset" : 304076
        },
        {
            "buffer" : 0,
            "byteLength" : 29856,
            "byteOffset" : 324012
        },
        {
            "buffer" : 0,
            "byteLength" : 6648,
            "byteOffset" : 353868
        },
        {
            "buffer" : 0,
            "byteLength" : 6648,
            "byteOffset" : 360516
        },
        {
            "buffer" : 0,
            "byteLength" : 4432,
            "byteOffset" : 367164
        },
        {
            "buffer" : 0,
            "byteLength" : 6624,
            "byteOffset" : 371596
        },
        {
            "buffer" : 0,
            "byteLength" : 1464,
            "byteOffset" : 378220
        },
        {
            "buffer" : 0,
            "byteLength" : 1464,
            "byteOffset" : 379684
        },
        {
            "buffer" : 0,
            "byteLength" : 976,
            "byteOffset" : 381148
        },
        {
            "buffer" : 0,
            "byteLength" : 1260,
            "byteOffset" : 382124
        },
        {
            "buffer" : 0,
            "byteLength" : 2568,
            "byteOffset" : 383384
        },
        {
            "buffer" : 0,
            "byteLength" : 2568,
            "byteOffset" : 385952
        },
        {
            "buffer" : 0,
            "byteLength" : 1712,
            "byteOffset" : 388520
        },
        {
            "buffer" : 0,
            "byteLength" : 2160,
            "byteOffset" : 390232
        },
        {
            "buffer" : 0,
            "byteLength" : 11700,
            "byteOffset" : 392392
        },
        {
            "buffer" : 0,
            "byteLength" : 11700,
            "byteOffset" : 404092
        },
        {
            "buffer" : 0,
            "byteLength" : 7800,
            "byteOffset" : 415792
        },
        {
            "buffer" : 0,
            "byteLength" : 11100,
            "byteOffset" : 423592
        }
    ],
    "samplers" : [
        {
            "magFilter" : 9729,
            "minFilter" : 9987
        }
    ],
    "buffers" : [
        {
            "byteLength" : 434692,
            "uri" : "data:application/octet-stream;base64,"
        }
    ]
}
